<svg width="47" height="47" viewBox="0 0 47 47" fill="none" xmlns="http://www.w3.org/2000/svg">
<mask id="mask0_54_791" style="mask-type:luminance" maskUnits="userSpaceOnUse" x="0" y="0" width="47" height="47">
<path d="M0 3.05176e-05H47V47H0V3.05176e-05Z" fill="white"/>
</mask>
<g mask="url(#mask0_54_791)">
<path d="M4.28119 31.4178H7.9527C8.78796 31.4178 9.4723 32.1022 9.4723 32.9375V42.5732C9.4723 43.4059 8.78796 44.0903 7.9527 44.0903H4.28119C3.44584 44.0903 2.76416 43.4059 2.76416 42.5732V32.9375C2.76416 32.1022 3.44584 31.4178 4.28119 31.4178Z" stroke="black" stroke-width="1.84952" stroke-miterlimit="10" stroke-linecap="round" stroke-linejoin="round"/>
<path d="M9.47217 33.0911H11.3822C12.1081 33.0599 12.2122 33.0624 13.0032 32.7502C16.6826 31.2982 19.688 31.129 23.3699 34.5952C23.8305 35.0271 23.9346 35.1493 24.6684 35.1493H29.6618C31.0227 35.1493 32.139 36.2631 32.139 37.6267C32.139 38.9875 31.0227 40.1013 29.6618 40.1013H21.5692" stroke="black" stroke-width="1.84952" stroke-miterlimit="10" stroke-linecap="round" stroke-linejoin="round"/>
<path d="M32.524 27.4834C33.9066 27.1731 35.2253 26.6264 36.4219 25.8674L37.265 26.7106C37.7073 27.1555 38.4334 27.1555 38.8756 26.7106L41.1343 24.4545C41.5767 24.0121 41.5767 23.2861 41.1343 22.8438L40.2912 22.0006C41.0482 20.803 41.5948 19.4847 41.9071 18.1027H43.0963C43.7234 18.1027 44.236 17.5874 44.236 16.9629V13.7701C44.236 13.1429 43.7234 12.6303 43.0963 12.6303H41.9071C41.5948 11.2483 41.0483 9.92991 40.2912 8.73224L41.1343 7.88918C41.5767 7.44681 41.5767 6.72079 41.1343 6.27842L38.8756 4.02233C38.4334 3.57739 37.7073 3.57739 37.265 4.02233L36.4219 4.86548C35.2249 4.10673 33.9064 3.55925 32.524 3.24692V2.0577C32.524 1.43063 32.0114 0.917947 31.3843 0.917947H28.1942C27.567 0.917947 27.0544 1.43063 27.0544 2.0577V3.24692C25.6713 3.55965 24.352 4.1071 23.1539 4.86548L22.3108 4.02233C21.8684 3.57739 21.1425 3.57739 20.7001 4.02233L18.4441 6.27842C18.0018 6.72079 18.0018 7.44681 18.4441 7.88918L19.2872 8.73224C18.5404 9.91367 17.9862 11.2277 17.6713 12.6303H16.4796C15.8524 12.6303 15.3398 13.1429 15.3398 13.7701V16.9629C15.3398 17.5874 15.8524 18.1027 16.4796 18.1027H17.6713C17.9862 19.5051 18.5404 20.8192 19.2872 22.0006L18.4441 22.8438C18.0018 23.2861 18.0018 24.0121 18.4441 24.4545L20.7001 26.7106C21.1425 27.1555 21.8684 27.1555 22.3108 26.7106L23.1539 25.8674C24.3352 26.6143 25.6493 27.1685 27.0544 27.4834V28.6752C27.0544 29.3023 27.567 29.8149 28.1942 29.8149H31.3843C32.0114 29.8149 32.524 29.3023 32.524 28.6752V27.4834Z" stroke="black" stroke-width="1.84952" stroke-miterlimit="10" stroke-linecap="round" stroke-linejoin="round"/>
<path d="M32.5244 27.4834V21.6963C35.2723 20.6762 37.2446 18.022 37.2446 14.928C37.2446 12.4586 35.9878 10.2701 34.0805 8.96642C32.082 7.6003 32.4671 9.7601 32.4671 10.1244V14.457C32.4671 15.9714 31.2806 17.2231 29.7896 17.322C28.2986 17.2231 27.1095 15.9714 27.1095 14.457V10.1244C27.1095 9.7601 27.4972 7.6003 25.4962 8.96642C23.5888 10.2701 22.332 12.4586 22.332 14.928C22.332 18.022 24.3044 20.6762 27.0548 21.6963V27.4834" stroke="black" stroke-width="1.84952" stroke-miterlimit="10" stroke-linecap="round" stroke-linejoin="round"/>
<path d="M32.4278 43.4606L30.6141 44.754C27.4396 46.8695 26.0995 46.0367 22.7584 45.1338L13.2557 42.5915C12.6858 42.438 12.7196 42.4198 12.3318 42.4198H9.47217M31.8345 36.44L39.8099 32.3442C40.9809 31.7431 42.412 32.0008 43.1015 33.1197C43.7936 34.2386 43.3956 35.649 42.3261 36.4114L39.1437 38.6778M35.7897 41.0667L35.7871 41.0692" stroke="black" stroke-width="1.84952" stroke-miterlimit="10" stroke-linecap="round" stroke-linejoin="round"/>
</g>
</svg>
